<?xml version="1.0" standalone="no"?>
<!DOCTYPE svg PUBLIC "-//W3C//DTD SVG 20010904//EN"
 "http://www.w3.org/TR/2001/REC-SVG-20010904/DTD/svg10.dtd">
<svg version="1.0" xmlns="http://www.w3.org/2000/svg"
 width="300.000000pt" height="300.000000pt" viewBox="0 0 300.000000 300.000000"
 preserveAspectRatio="xMidYMid meet">
<g transform="translate(0.000000,300.000000) scale(0.100000,-0.100000)" stroke="none">
<path d="M899 2602 l-395 -106 -105 -397 -105 -398 705 -704 706 -704 396 105
395 106 105 397 105 398 -705 704 -706 704 -396 -105z m655 -231 l269 -269
-42 -158 c-24 -87 -43 -159 -44 -160 -1 0 -95 -25 -208 -54 l-206 -53 -53
-206 c-30 -113 -54 -207 -54 -208 -1 -1 -73 -20 -160 -44 l-158 -42 -270 270
-270 270 97 364 c53 200 97 365 98 366 3 3 710 191 722 192 6 1 131 -120 279
-268z m411 -411 c49 -49 87 -91 84 -92 -2 -2 -51 -15 -109 -30 -58 -15 -114
-30 -124 -34 -16 -6 -18 -4 -12 12 4 10 20 67 34 126 15 59 29 108 32 108 3 0
46 -40 95 -90z m408 -408 l269 -269 -97 -364 c-53 -200 -97 -365 -98 -366 -1
-1 -166 -45 -366 -98 l-364 -97 -270 270 -270 270 42 158 c24 87 43 159 44
160 1 0 95 25 208 54 l206 53 54 208 54 208 120 31 c66 17 131 35 145 40 14 5
32 9 40 9 8 1 136 -120 283 -267z m-653 164 c0 -10 -90 -339 -93 -343 -7 -6
-340 -94 -344 -90 -4 4 84 337 90 344 5 5 315 90 335 92 6 0 12 -1 12 -3z
m-525 -533 c-3 -10 -18 -65 -33 -123 -15 -58 -28 -107 -30 -109 -4 -6 -182
171 -182 181 0 5 10 8 23 9 12 0 65 13 117 29 117 34 114 34 105 13z"/>
<path d="M963 1885 l2 -255 31 0 30 0 -4 116 -5 116 112 -4 111 -3 0 28 0 29
-107 -3 -108 -3 -3 92 -3 92 126 0 125 0 0 25 0 25 -155 0 -154 0 2 -255z"/>
<path d="M1780 1071 l0 -261 155 0 155 0 0 25 0 25 -125 0 -126 0 1 233 2 232
-31 3 -31 3 0 -260z"/>
</g>
</svg>
